nColumns=19
nRows=124
DataType=double
version=3
OpenSimVersion=4.1
endheader
time	ground_force_calcn_r_vx	ground_force_calcn_r_vy	ground_force_calcn_r_vz	ground_force_calcn_r_px	ground_force_calcn_r_py	ground_force_calcn_r_pz	ground_force_calcn_r_mx	ground_force_calcn_r_my	ground_force_calcn_r_mz	ground_force_calcn_l_vx	ground_force_calcn_l_vy	ground_force_calcn_l_vz	ground_force_calcn_l_px	ground_force_calcn_l_py	ground_force_calcn_l_pz	ground_force_calcn_l_mx	ground_force_calcn_l_my	ground_force_calcn_l_mz
0.05	0	0	0	0	0	0	0	0	0	211.906	462.026	11.9478	0.602678	0	-0.673462	-7.9578	-17.3506	-0.448681
0.058333	0	0	0	0	0	0	0	0	0	170.084	314.883	4.52045	0.574274	0	-0.673266	-5.52072	-10.2207	-0.146728
0.066667	0	0	0	0	0	0	0	0	0	115.424	182.321	-0.125624	0.53859	0	-0.670515	-2.86907	-4.53192	0.00312261
0.075	0	0	0	0	0	0	0	0	0	61.3074	91.3106	-0.25237	0.526151	0	-0.656269	-0.479156	-0.713649	0.00197243
0.083333	0	0	0	0	0	0	0	0	0	23.6955	42.812	2.06071	0.606648	0	-0.61647	1.04553	1.88901	0.0909257
0.091667	0	0	0	0	0	0	0	0	0	6.10851	20.6627	3.31776	0.743092	0	-0.568239	1.12554	3.80726	0.611324
0.1	0	0	0	0	0	0	0	0	0	0	0	0	0	0	0	0	0	0
0.108333	0	0	0	0	0	0	0	0	0	0	0	0	0	0	0	0	0	0
0.116667	0	0	0	0	0	0	0	0	0	0	0	0	0	0	0	0	0	0
0.125	0	0	0	0	0	0	0	0	0	0	0	0	0	0	0	0	0	0
0.133333	0	0	0	0	0	0	0	0	0	0	0	0	0	0	0	0	0	0
0.141667	0	0	0	0	0	0	0	0	0	0	0	0	0	0	0	0	0	0
0.15	0	0	0	0	0	0	0	0	0	0	0	0	0	0	0	0	0	0
0.158333	0	0	0	0	0	0	0	0	0	0	0	0	0	0	0	0	0	0
0.166667	-3.07743	14.35	1.89276	1.01847	0	-0.648823	-0.720854	3.36133	0.443359	0	0	0	0	0	0	0	0	0
0.175	-7.00991	34.8258	-0.810314	1.11247	0	-0.633648	-1.07168	5.32419	-0.123881	0	0	0	0	0	0	0	0	0
0.183333	-17.1395	96.2567	-6.44666	1.13099	0	-0.614599	-1.25944	7.07312	-0.473713	0	0	0	0	0	0	0	0	0
0.191667	-38.0468	252.678	-12.9066	1.13916	0	-0.611488	-1.24422	8.26319	-0.422079	0	0	0	0	0	0	0	0	0
0.2	-69.5633	525.959	-16.241	1.13791	0	-0.615278	-1.11777	8.45131	-0.260967	0	0	0	0	0	0	0	0	0
0.208333	-99.6155	831.767	-12.0087	1.12845	0	-0.619774	-0.897885	7.49714	-0.108241	0	0	0	0	0	0	0	0	0
0.216667	-124.003	1046.5	1.51604	1.11491	0	-0.623176	-0.661402	5.58181	0.00808621	0	0	0	0	0	0	0	0	0
0.225	-163.058	1155.77	19.7383	1.09969	0	-0.624857	-0.449208	3.18404	0.0543772	0	0	0	0	0	0	0	0	0
0.233333	-212.583	1235.11	33.5327	1.08107	0	-0.625166	-0.164889	0.958012	0.0260095	0	0	0	0	0	0	0	0	0
0.241667	-231.229	1343.04	36.7935	1.05279	0	-0.62552	0.0965671	-0.560889	-0.0153659	0	0	0	0	0	0	0	0	0
0.25	-203.3	1487.56	31.196	1.01583	0	-0.626409	0.152519	-1.116	-0.0234039	0	0	0	0	0	0	0	0	0
0.258333	-154.937	1638.78	22.3772	0.979635	0	-0.626737	0.0631947	-0.668415	-0.00912709	0	0	0	0	0	0	0	0	0
0.266667	-111.508	1758.37	13.3662	0.948492	0	-0.625888	-0.0365728	0.576717	0.0043839	0	0	0	0	0	0	0	0	0
0.275	-74.7875	1831.53	3.93805	0.919205	0	-0.624594	-0.0912724	2.23524	0.00480609	0	0	0	0	0	0	0	0	0
0.283333	-36.6231	1866.06	-5.37583	0.888571	0	-0.623664	-0.0759512	3.86994	-0.0111487	0	0	0	0	0	0	0	0	0
0.291667	2.25763	1869.61	-12.159	0.857416	0	-0.623027	0.00614524	5.08906	-0.0330967	0	0	0	0	0	0	0	0	0
0.3	39.0371	1841.15	-14.9779	0.826856	0	-0.622401	0.119253	5.62445	-0.0457554	0	0	0	0	0	0	0	0	0
0.308333	80.0603	1777.67	-14.6376	0.795004	0	-0.622071	0.241907	5.37135	-0.0442285	0	0	0	0	0	0	0	0	0
0.316667	132.949	1677.26	-12.014	0.759217	0	-0.622279	0.347648	4.38588	-0.0314154	0	0	0	0	0	0	0	0	0
0.325	195.425	1543	-6.80684	0.720025	0	-0.622836	0.363021	2.86629	-0.0126444	0	0	0	0	0	0	0	0	0
0.333333	250.913	1384.81	0.804397	0.681815	0	-0.623744	0.203415	1.12267	0.000652126	0	0	0	0	0	0	0	0	0
0.341667	282.623	1207.65	8.96021	0.647053	0	-0.625015	-0.117819	-0.503441	-0.0037353	0	0	0	0	0	0	0	0	0
0.35	288.379	1007.47	15.4184	0.613366	0	-0.626166	-0.496586	-1.73485	-0.0265504	0	0	0	0	0	0	0	0	0
0.358333	273.215	788.378	19.197	0.579222	0	-0.626773	-0.830666	-2.39693	-0.0583651	0	0	0	0	0	0	0	0	0
0.366667	239.215	570.31	20.5527	0.548161	0	-0.626946	-1.02769	-2.4501	-0.0882961	0	0	0	0	0	0	0	0	0
0.375	188.448	376.443	19.9473	0.524687	0	-0.626268	-1.00582	-2.00922	-0.106467	0	0	0	0	0	0	0	0	0
0.383333	129.391	223.676	17.55	0.511264	0	-0.623217	-0.746244	-1.29002	-0.101217	0	0	0	0	0	0	0	0	0
0.391667	75.009	118.636	13.7804	0.511775	0	-0.616586	-0.319721	-0.50568	-0.0587383	0	0	0	0	0	0	0	0	0
0.4	34.8587	56.1631	9.79684	0.526661	0	-0.604377	0.140818	0.226881	0.0395762	0	0	0	0	0	0	0	0	0
0.408333	11.8763	24.5225	6.84076	0.53016	0	-0.578303	0.446107	0.921135	0.256958	0	0	0	0	0	0	0	0	0
0.416667	2.56968	11.8625	5.223	0.514286	0	-0.559756	0.322663	1.48952	0.655829	0	0	0	0	0	0	0	0	0
0.425	0	0	0	0	0	0	0	0	0	0	0	0	0	0	0	0	0	0
0.433333	0	0	0	0	0	0	0	0	0	0	0	0	0	0	0	0	0	0
0.441667	0	0	0	0	0	0	0	0	0	0	0	0	0	0	0	0	0	0
0.45	0	0	0	0	0	0	0	0	0	0	0	0	0	0	0	0	0	0
0.458333	0	0	0	0	0	0	0	0	0	0	0	0	0	0	0	0	0	0
0.466667	0	0	0	0	0	0	0	0	0	0	0	0	0	0	0	0	0	0
0.475	0	0	0	0	0	0	0	0	0	0	0	0	0	0	0	0	0	0
0.483333	0	0	0	0	0	0	0	0	0	0	0	0	0	0	0	0	0	0
0.491667	0	0	0	0	0	0	0	0	0	-4.17537	14.557	3.24192	1.00262	0	-0.642037	-0.204252	0.712101	0.158589
0.5	0	0	0	0	0	0	0	0	0	-9.93948	44.0835	3.80168	1.10415	0	-0.639516	-0.140854	0.624716	0.0538744
0.508333	0	0	0	0	0	0	0	0	0	-24.5298	128.077	4.30459	1.13187	0	-0.643903	-0.155069	0.80966	0.0272121
0.516667	0	0	0	0	0	0	0	0	0	-48.5277	315.394	4.45798	1.1364	0	-0.644754	-0.22572	1.46701	0.0207357
0.525	0	0	0	0	0	0	0	0	0	-77.9641	619.858	3.10006	1.13155	0	-0.644991	-0.336574	2.67595	0.0133831
0.533333	0	0	0	0	0	0	0	0	0	-110.241	943.708	-1.91172	1.12143	0	-0.645416	-0.50712	4.34114	-0.00879407
0.541667	0	0	0	0	0	0	0	0	0	-145.688	1133.76	-11.0081	1.10811	0	-0.645682	-0.792367	6.16631	-0.0598708
0.55	0	0	0	0	0	0	0	0	0	-186.295	1171.87	-19.5661	1.09267	0	-0.646134	-1.22587	7.71118	-0.12875
0.558333	0	0	0	0	0	0	0	0	0	-228.682	1192.66	-19.5717	1.07389	0	-0.647351	-1.64722	8.59087	-0.140978
0.566667	0	0	0	0	0	0	0	0	0	-250.872	1298.49	-7.81213	1.05021	0	-0.648617	-1.68112	8.70131	-0.05235
0.575	0	0	0	0	0	0	0	0	0	-234.314	1471.21	8.93759	1.02135	0	-0.649398	-1.28297	8.05549	0.0489371
0.583333	0	0	0	0	0	0	0	0	0	-192.11	1637.5	21.1814	0.989655	0	-0.650297	-0.787986	6.71659	0.0868808
0.591667	0	0	0	0	0	0	0	0	0	-143.115	1754.78	27.7201	0.958103	0	-0.651498	-0.40231	4.93283	0.0779236
0.6	0	0	0	0	0	0	0	0	0	-99.002	1826.51	34.3093	0.929201	0	-0.652495	-0.163476	3.01601	0.056653
0.608333	0	0	0	0	0	0	0	0	0	-64.8718	1861.03	42.8839	0.903426	0	-0.653084	-0.0437245	1.25436	0.0289044
0.616667	0	0	0	0	0	0	0	0	0	-33.0239	1856.8	48.6311	0.877348	0	-0.653796	0.00204643	-0.115063	-0.00301358
0.625	0	0	0	0	0	0	0	0	0	3.5024	1818.41	47.9007	0.848083	0	-0.654911	-0.00179916	-0.934105	-0.0246063
0.633333	0	0	0	0	0	0	0	0	0	41.6294	1755.88	42.7136	0.817217	0	-0.655803	-0.0270668	-1.14165	-0.0277718
0.641667	0	0	0	0	0	0	0	0	0	77.6895	1668.81	35.7928	0.787446	0	-0.655758	-0.0360733	-0.774876	-0.0166196
0.65	0	0	0	0	0	0	0	0	0	119.523	1549.96	26.122	0.756282	0	-0.654838	0.00303195	0.039318	0.000662642
0.658333	0	0	0	0	0	0	0	0	0	176.378	1400.92	12.1433	0.718926	0	-0.653502	0.136877	1.08718	0.00942376
0.666667	0	0	0	0	0	0	0	0	0	233.39	1232.64	-3.4988	0.677733	0	-0.652002	0.395104	2.08672	-0.00592308
0.675	0	0	0	0	0	0	0	0	0	263.058	1053.53	-15.2835	0.640969	0	-0.650317	0.695085	2.78376	-0.0403841
0.683333	0	0	0	0	0	0	0	0	0	259.436	863.608	-20.2448	0.612152	0	-0.648278	0.914247	3.04333	-0.0713421
0.691667	0	0	0	0	0	0	0	0	0	236.39	663.557	-20.1974	0.585693	0	-0.645985	1.01119	2.83845	-0.0863972
0.7	0	0	0	0	0	0	0	0	0	202.077	464.894	-18.305	0.554318	0	-0.644055	0.979723	2.25393	-0.0887476
0.708333	0	0	0	0	0	0	0	0	0	154.749	288.829	-15.1378	0.519377	0	-0.642651	0.802371	1.49758	-0.0784892
0.716667	0	0	0	0	0	0	0	0	0	99.2521	156.801	-9.58602	0.49849	0	-0.639887	0.517846	0.818108	-0.0500148
0.725	0	0	0	0	0	0	0	0	0	49.8751	76.701	-2.58909	0.542145	0	-0.633328	0.240781	0.370288	-0.0124993
0.733333	0	0	0	0	0	0	0	0	0	18.4696	37.3305	2.45217	0.693694	0	-0.628663	0.0781315	0.157918	0.0103734
0.741667	0	0	0	0	0	0	0	0	0	5.32431	18.8815	3.45851	0.780742	0	-0.636905	0.0471641	0.167257	0.0306363
0.75	0	0	0	0	0	0	0	0	0	0	0	0	0	0	0	0	0	0
0.758333	0	0	0	0	0	0	0	0	0	0	0	0	0	0	0	0	0	0
0.766667	0	0	0	0	0	0	0	0	0	0	0	0	0	0	0	0	0	0
0.775	0	0	0	0	0	0	0	0	0	0	0	0	0	0	0	0	0	0
0.783333	0	0	0	0	0	0	0	0	0	0	0	0	0	0	0	0	0	0
0.791667	0	0	0	0	0	0	0	0	0	0	0	0	0	0	0	0	0	0
0.8	0	0	0	0	0	0	0	0	0	0	0	0	0	0	0	0	0	0
0.808333	0	0	0	0	0	0	0	0	0	0	0	0	0	0	0	0	0	0
0.816667	-4.01491	10.2901	3.10045	0.924507	0	-0.662276	-0.9064	2.32308	0.699954	0	0	0	0	0	0	0	0	0
0.825	-5.18522	19.2461	0.662499	1.09746	0	-0.623926	-1.01529	3.76847	0.12972	0	0	0	0	0	0	0	0	0
0.833333	-9.41083	60.3693	-4.22572	1.13906	0	-0.589089	-0.797762	5.11755	-0.358217	0	0	0	0	0	0	0	0	0
0.841667	-23.1568	182.402	-11.0052	1.14758	0	-0.585502	-0.771217	6.07473	-0.36652	0	0	0	0	0	0	0	0	0
0.85	-51.364	431.944	-18.6748	1.14479	0	-0.587667	-0.755439	6.35284	-0.274661	0	0	0	0	0	0	0	0	0
0.858333	-91.1125	771.201	-23.7265	1.13457	0	-0.591029	-0.674272	5.70722	-0.175587	0	0	0	0	0	0	0	0	0
0.866667	-132.555	1052.45	-20.3858	1.12221	0	-0.594056	-0.521555	4.14099	-0.0802102	0	0	0	0	0	0	0	0	0
0.875	-179.361	1185.17	-6.72147	1.1111	0	-0.595286	-0.298174	1.97025	-0.0111739	0	0	0	0	0	0	0	0	0
0.883333	-239.451	1243.25	9.79652	1.1001	0	-0.594199	0.0430682	-0.223615	-0.00176203	0	0	0	0	0	0	0	0	0
0.891667	-282.977	1329.4	17.2492	1.08119	0	-0.592893	0.393325	-1.8478	-0.0239755	0	0	0	0	0	0	0	0	0
0.9	-275.938	1468.85	11.137	1.04872	0	-0.593325	0.48195	-2.56547	-0.0194517	0	0	0	0	0	0	0	0	0
0.908333	-231.652	1630.33	-1.88727	1.01045	0	-0.594255	0.317753	-2.23629	0.00258874	0	0	0	0	0	0	0	0	0
0.916667	-183.026	1767.15	-13.218	0.976528	0	-0.593927	0.100429	-0.969658	0.00725288	0	0	0	0	0	0	0	0	0
0.925	-142.383	1849.07	-21.2616	0.947137	0	-0.592377	-0.0673068	0.874087	-0.0100508	0	0	0	0	0	0	0	0	0
0.933333	-97.0653	1875.32	-29.0155	0.916174	0	-0.590535	-0.146886	2.83786	-0.0439081	0	0	0	0	0	0	0	0	0
0.941667	-35.7163	1864.36	-36.7353	0.880862	0	-0.589015	-0.0857889	4.47811	-0.0882365	0	0	0	0	0	0	0	0	0
0.95	32.5109	1831.3	-41.1267	0.844931	0	-0.587899	0.0965073	5.43613	-0.122083	0	0	0	0	0	0	0	0	0
0.958333	94.5759	1773.43	-40.1904	0.811203	0	-0.587061	0.294349	5.51946	-0.125085	0	0	0	0	0	0	0	0	0
0.966667	150.838	1679.51	-35.1414	0.777241	0	-0.586496	0.425371	4.7363	-0.0991004	0	0	0	0	0	0	0	0	0
0.975	205.708	1547.43	-27.5961	0.74074	0	-0.586516	0.434931	3.27175	-0.0583468	0	0	0	0	0	0	0	0	0
0.983333	253.763	1384.98	-17.7481	0.703765	0	-0.587334	0.265353	1.44824	-0.0185587	0	0	0	0	0	0	0	0	0
0.991667	283.057	1198.39	-6.20623	0.669611	0	-0.588527	-0.0823248	-0.348543	0.00180503	0	0	0	0	0	0	0	0	0
1	288.944	990.829	4.29844	0.63816	0	-0.589547	-0.51684	-1.77232	-0.0076887	0	0	0	0	0	0	0	0	0
1.00833	273.111	770.51	10.603	0.607729	0	-0.590532	-0.918043	-2.59002	-0.0356413	0	0	0	0	0	0	0	0	0
1.01667	236.648	554.291	12.0272	0.577953	0	-0.591501	-1.16865	-2.73728	-0.0593942	0	0	0	0	0	0	0	0	0
1.025	183.459	363.466	10.5502	0.550555	0	-0.591577	-1.17794	-2.3337	-0.0677397	0	0	0	0	0	0	0	0	0
1.03333	123.668	214.803	8.36515	0.53316	0	-0.589922	-0.928255	-1.61232	-0.0627892	0	0	0	0	0	0	0	0	0
1.04167	69.9568	113.109	6.30813	0.539336	0	-0.586824	-0.491275	-0.794312	-0.0442992	0	0	0	0	0	0	0	0	0
1.05	31.6242	51.4014	4.53974	0.569385	0	-0.578188	0.0066285	0.0107738	0.000951538	0	0	0	0	0	0	0	0	0
1.05833	10.9831	20.3255	3.40286	0.61252	0	-0.546602	0.426148	0.788637	0.132032	0	0	0	0	0	0	0	0	0
1.06667	3.31256	10.9476	3.06605	0.70508	0	-0.534891	0.486552	1.60799	0.450344	0	0	0	0	0	0	0	0	0
1.075	0.890544	10.5963	3.04261	0.757191	0	-0.596635	0.192451	2.2899	0.657524	0	0	0	0	0	0	0	0	0
